<?xml version="1.0" encoding="UTF-8"?>
<svg version="1.1" viewBox="0 0 2048 1474" width="1280" height="1280" xmlns="http://www.w3.org/2000/svg">
<path transform="translate(798,291)" d="m0 0 23 1 28 4 17 4 27 9 20 9 16 9 17 12 10 9 8 7 12 13 12 16 11 17 10 18 8 17 9 25 7 29 5 31 2 23 1 39-1 38-3 32-5 39-8 42-11 43-11 36-12 34-16 38-11 25-16 33-14 25-13 22-5 10 29 2h45l25-3 30-7 21-7 20-10 11-7 10-7h2l2-12 5-21 8-16 13-13 9-6 21-8 5-8 8-20 6-18 7-30 8-45 6-42 6-51 2-29v-20l-3-11-1-3v-9l5-12 11-11 14-8 19-7 18-4 18-2h24l18 2 21 5 18 8 10 7 5 4 8 11 9 19 12 14 9 11 14 17 13 18 22 33 9 15 12 21 20 40 15 36 11 29 8 26 7 29 4 22 3 25 29-6 17-6 16-8 16-10 13-12 7-7 11-15 9-15 11-24 7-24 4-17 6-9 4-2 9 1 6 3 8 7 5 8 3 11-1 11-4 14-10 29-11 24-11 19-8 11-8 10-9 10-11 10-15 11-16 9-25 10-23 6-20 3-12 1-2 11-7 25-8 20-8 16-9 14-13 17-14 15-8 8-11 9-13 10-20 12-16 8-24 9-21 5-17 3-19 2h-31l-24-3-23-5-21-7-18-8-19-10-18-12-14-11-15-14-7-7-9-11-10-13-13-21-11-23-7-21-6 2-29 14-22 8-28 7-27 4-20 2h-38l-53-5-13-1-12 14-9 11-24 24-7 8-13 12-13 11-13 10-19 13-14 9-23 12-23 10-25 8-19 4-17 2h-43l-22-4-16-4-21-8-16-8-11-7-11-9-10-9-9-11-7 1-16 4h-19l-20-4-16-7-9-6-7-6-8-11-9-17-8-24-6-24-6-32-7-51-6-60-5-72-2-43-2-78v-91l2-75 4-82 4-45 4-31 4-20 6-18 6-10 11-12 11-8 16-8 15-5 14-3h29l20 4 14 7 8 7 3 7-4 113-2 78v22h2l8-16 13-24 13-22 16-24 10-14 10-13 11-13 7-8 11-12 7-8 17-16 10-9 17-14 16-11 16-10 21-11 23-9 28-7 27-4zm-39 66-18 3-17 5-13 5-20 11-16 11-13 10-10 9-8 7-13 12-9 9-7 8-13 15-10 12-14 19-10 14-12 18-11 18-15 26-12 23-8 16-10 21-3 9-1 28-1 134 1 121 1 20 15-6 25-6 11-1h20l26 2 32 5 43 10 50 13 61 16 9 1 8-16 14-33 14-39 12-36 8-26 12-49 10-50 7-46 5-51 2-50v-20l-2-41-4-32-6-28-5-17-6-16-9-19-10-15-11-12-13-10-12-6-13-4-10-2zm505 275-1 2-3 38-9 65-10 56-9 43-10 33-4 13 1 3 41 7 48 11 59 16 37 9h4l-2-12-6-23-12-35-20-46-12-25-14-29-16-29-14-25-15-25-13-21-13-19-6-7zm-36 305-14 3-12 7-8 10-4 10-2 10v25l3 19 6 20 6 14 11 19 11 15 11 12 9 9 12 9 13 8 17 8 14 4 14 2h20l15-3 13-5 12-7 11-9 7-7 9-12 8-16 5-16 3-12 3-29v-15l-2-26-1-5-18-6-73-21-32-8-24-5-17-2zm-647 44-21 3-13 5-13 10-7 11-4 11-2 9-1 19 2 22 5 19 8 16 8 11 6 7 13 10 15 8 13 4 15 2h11l16-2 16-5 19-9 12-8 12-9 17-16 6-6v-2h2l9-11 13-16 10-14 13-21 3-7-32-10-45-12-58-13-28-4z" fill="#FEFEFE"/>
</svg>
